<svg xmlns="http://www.w3.org/2000/svg" viewBox="0 0 1000 700" font-family="Segoe UI, Arial, sans-serif">
  <defs>
    <filter id="sh">
      <feDropShadow dx="1" dy="2" stdDeviation="3" flood-color="#000" flood-opacity="0.12"/>
    </filter>
    <filter id="shLg">
      <feDropShadow dx="2" dy="3" stdDeviation="5" flood-color="#000" flood-opacity="0.15"/>
    </filter>
  </defs>
  <rect width="1000" height="700" fill="#ffffff"/>
  <text x="500" y="35" text-anchor="middle" fill="#1a1a2e" font-size="24" font-weight="bold">Deployment Flow</text>
  <text x="500" y="58" text-anchor="middle" fill="#666" font-size="12">Execution Order: Files 01-10</text>

  <rect x="50" y="85" width="180" height="60" rx="8" fill="#eaf7fc" stroke="#29b5e8" stroke-width="1.5" filter="url(#sh)"/>
  <text x="140" y="110" text-anchor="middle" fill="#0e7fad" font-size="13" font-weight="bold">01 Infrastructure</text>
  <text x="140" y="128" text-anchor="middle" fill="#555" font-size="10">Database, Schemas, WH</text>
  <line x1="230" y1="115" x2="268" y2="115" stroke="#29b5e8" stroke-width="1.5"/>
  <polygon points="266,111 276,115 266,119" fill="#29b5e8"/>

  <rect x="280" y="85" width="180" height="60" rx="8" fill="#eaf7fc" stroke="#29b5e8" stroke-width="1.5" filter="url(#sh)"/>
  <text x="370" y="110" text-anchor="middle" fill="#0e7fad" font-size="13" font-weight="bold">02 Tables</text>
  <text x="370" y="128" text-anchor="middle" fill="#555" font-size="10">10 Core Banking Tables</text>
  <line x1="460" y1="115" x2="498" y2="115" stroke="#29b5e8" stroke-width="1.5"/>
  <polygon points="496,111 506,115 496,119" fill="#29b5e8"/>

  <rect x="510" y="85" width="180" height="60" rx="8" fill="#f3f0ff" stroke="#7b61ff" stroke-width="1.5" filter="url(#sh)"/>
  <text x="600" y="110" text-anchor="middle" fill="#5a3ec8" font-size="13" font-weight="bold">03 FIBO Ontology</text>
  <text x="600" y="128" text-anchor="middle" fill="#555" font-size="10">5 Ontology Tables + Data</text>
  <line x1="690" y1="115" x2="728" y2="115" stroke="#7b61ff" stroke-width="1.5"/>
  <polygon points="726,111 736,115 726,119" fill="#7b61ff"/>

  <rect x="740" y="85" width="210" height="60" rx="8" fill="#fff3ed" stroke="#e8530e" stroke-width="1.5" filter="url(#sh)"/>
  <text x="845" y="110" text-anchor="middle" fill="#b33f08" font-size="13" font-weight="bold">04 Synthetic Data</text>
  <text x="845" y="128" text-anchor="middle" fill="#555" font-size="10">2K Customers, Txns, Loans</text>

  <line x1="845" y1="145" x2="845" y2="190" stroke="#e8530e" stroke-width="1.5"/>
  <polygon points="841,188 845,198 849,188" fill="#e8530e"/>

  <rect x="50" y="200" width="180" height="60" rx="8" fill="#edf9f0" stroke="#00a843" stroke-width="1.5" filter="url(#sh)"/>
  <text x="140" y="225" text-anchor="middle" fill="#007a31" font-size="13" font-weight="bold">05 Analytical Views</text>
  <text x="140" y="243" text-anchor="middle" fill="#555" font-size="10">7 Business Views</text>
  <line x1="230" y1="230" x2="268" y2="230" stroke="#00a843" stroke-width="1.5"/>
  <polygon points="266,226 276,230 266,234" fill="#00a843"/>

  <rect x="280" y="200" width="180" height="60" rx="8" fill="#edf9f0" stroke="#00a843" stroke-width="1.5" filter="url(#sh)"/>
  <text x="370" y="225" text-anchor="middle" fill="#007a31" font-size="13" font-weight="bold">06 Semantic Views</text>
  <text x="370" y="243" text-anchor="middle" fill="#555" font-size="10">Cortex Analyst Layer</text>
  <line x1="460" y1="230" x2="498" y2="230" stroke="#00a843" stroke-width="1.5"/>
  <polygon points="496,226 506,230 496,234" fill="#00a843"/>

  <rect x="510" y="200" width="180" height="60" rx="8" fill="#edf9f0" stroke="#00a843" stroke-width="1.5" filter="url(#sh)"/>
  <text x="600" y="225" text-anchor="middle" fill="#007a31" font-size="13" font-weight="bold">07 Cortex Search</text>
  <text x="600" y="243" text-anchor="middle" fill="#555" font-size="10">4 Search Services</text>
  <line x1="690" y1="230" x2="728" y2="230" stroke="#00a843" stroke-width="1.5"/>
  <polygon points="726,226 736,230 726,234" fill="#00a843"/>

  <rect x="740" y="200" width="210" height="60" rx="8" fill="#fff3ed" stroke="#e8530e" stroke-width="1.5" filter="url(#sh)"/>
  <text x="845" y="225" text-anchor="middle" fill="#b33f08" font-size="13" font-weight="bold">08 ML Notebook</text>
  <text x="845" y="243" text-anchor="middle" fill="#555" font-size="10">Churn, Credit, LTV Models</text>

  <line x1="500" y1="260" x2="500" y2="310" stroke="#29b5e8" stroke-width="1.5"/>
  <polygon points="496,308 500,318 504,308" fill="#29b5e8"/>

  <rect x="280" y="320" width="180" height="60" rx="8" fill="#f3f0ff" stroke="#7b61ff" stroke-width="1.5" filter="url(#sh)"/>
  <text x="370" y="345" text-anchor="middle" fill="#5a3ec8" font-size="13" font-weight="bold">09 UDFs</text>
  <text x="370" y="363" text-anchor="middle" fill="#555" font-size="10">FIBO + Risk + Portfolio</text>
  <line x1="460" y1="350" x2="498" y2="350" stroke="#7b61ff" stroke-width="1.5"/>
  <polygon points="496,346 506,350 496,354" fill="#7b61ff"/>

  <rect x="510" y="320" width="210" height="60" rx="8" fill="#e8530e" filter="url(#shLg)"/>
  <text x="615" y="347" text-anchor="middle" fill="#fff" font-size="15" font-weight="bold">10 CREATE AGENT</text>
  <text x="615" y="367" text-anchor="middle" fill="#ffe0cc" font-size="10">CATHAY_BNK_AGENT</text>

  <rect x="80" y="420" width="840" height="250" rx="12" fill="#f8f9fa" stroke="#dde1e6" stroke-width="1" filter="url(#shLg)"/>
  <text x="500" y="450" text-anchor="middle" fill="#1a1a2e" font-size="16" font-weight="bold">Agent Capabilities</text>

  <rect x="110" y="470" width="230" height="50" rx="6" fill="#eaf7fc" stroke="#29b5e8" stroke-width="1" filter="url(#sh)"/>
  <text x="225" y="492" text-anchor="middle" fill="#0e7fad" font-size="11" font-weight="bold">Cortex Analyst (Text-to-SQL)</text>
  <text x="225" y="508" text-anchor="middle" fill="#555" font-size="9">Semantic View | 9 Tables | 30+ Metrics</text>

  <rect x="365" y="470" width="230" height="50" rx="6" fill="#edf9f0" stroke="#00a843" stroke-width="1" filter="url(#sh)"/>
  <text x="480" y="492" text-anchor="middle" fill="#007a31" font-size="11" font-weight="bold">Cortex Search (4 Services)</text>
  <text x="480" y="508" text-anchor="middle" fill="#555" font-size="9">Regulatory | Compliance | Support | Ontology</text>

  <rect x="620" y="470" width="230" height="50" rx="6" fill="#fff3ed" stroke="#e8530e" stroke-width="1" filter="url(#sh)"/>
  <text x="735" y="492" text-anchor="middle" fill="#b33f08" font-size="11" font-weight="bold">Custom Tools (6 UDFs)</text>
  <text x="735" y="508" text-anchor="middle" fill="#555" font-size="9">FIBO Resolve | Risk Profile | Summaries</text>

  <rect x="110" y="535" width="350" height="50" rx="6" fill="#f3f0ff" stroke="#7b61ff" stroke-width="1" filter="url(#sh)"/>
  <text x="285" y="557" text-anchor="middle" fill="#5a3ec8" font-size="11" font-weight="bold">FIBO Ontology Integration</text>
  <text x="285" y="573" text-anchor="middle" fill="#555" font-size="9">20 Classes | 18 Relationships | 12 Regulatory Mappings</text>

  <rect x="485" y="535" width="365" height="50" rx="6" fill="#fff3ed" stroke="#e8530e" stroke-width="1" filter="url(#sh)"/>
  <text x="668" y="557" text-anchor="middle" fill="#b33f08" font-size="11" font-weight="bold">ML Models (Registry)</text>
  <text x="668" y="573" text-anchor="middle" fill="#555" font-size="9">Churn Prediction | Credit Risk | Customer LTV</text>

  <rect x="110" y="600" width="740" height="28" rx="6" fill="#eaf7fc" stroke="#29b5e8" stroke-width="1" filter="url(#sh)"/>
  <text x="480" y="619" text-anchor="middle" fill="#0e7fad" font-size="11">Data-to-Chart Visualization | Natural Language Queries | Multi-Tool Orchestration</text>
</svg>